<svg width="1080" height="1080" viewBox="0 0 1080 1080" fill="none" xmlns="http://www.w3.org/2000/svg">
<path d="M449.1 725.49C424.82 665.632 361.54 631.361 298.142 643.734C234.743 656.107 188.993 711.655 189 776.25C189 804.276 177.384 831.048 156.917 850.193C136.45 869.338 108.963 879.143 81 877.275C126.749 956.749 220.194 995.561 308.785 971.884C397.377 948.207 459 867.951 459 776.25C459 758.295 455.49 741.15 449.1 725.49ZM449.1 725.49C502.606 707.26 553.778 682.791 601.56 652.59M374.625 651.465C392.859 597.846 417.359 546.566 447.615 498.69M601.515 652.59C686.851 598.674 759.892 527.411 815.895 443.43L990.315 181.8C1004.09 161.25 1001.42 133.824 983.921 116.329C966.426 98.834 939 96.1555 918.45 109.935L656.82 284.4C572.828 340.386 501.55 413.412 447.615 498.735C516.1 529.356 570.894 584.15 601.515 652.635" stroke="#EA580C" stroke-width="67.5" stroke-linecap="round" stroke-linejoin="round"/>
</svg>
